<svg xmlns="http://www.w3.org/2000/svg" width="24" height="24" viewBox="0 0 21.59 20">
  <path id="idiomas" d="M12.65,15.67a.981.981,0,0,0-.23-1.05l-2.09-2.06.03-.03A17.519,17.519,0,0,0,14.07,6h1.94A1,1,0,0,0,17,5.01V4.99A1,1,0,0,0,16.01,4H10V3A1,1,0,0,0,8,3V4H1.99a.99.99,0,1,0,0,1.98H12.17A15.661,15.661,0,0,1,9,11.35,15.481,15.481,0,0,1,6.94,8.47.885.885,0,0,0,6.16,8a.908.908,0,0,0-.79,1.35,17.663,17.663,0,0,0,2.3,3.21L3.3,16.87a.99.99,0,0,0,0,1.42,1.008,1.008,0,0,0,1.42,0L9,14l2.02,2.02a.993.993,0,0,0,1.63-.35ZM17.5,10a1.436,1.436,0,0,0-1.35.94l-3.67,9.8A.927.927,0,0,0,13.35,22a.94.94,0,0,0,.88-.61L15.12,19h4.75l.9,2.39a.954.954,0,0,0,.88.61.936.936,0,0,0,.88-1.26l-3.67-9.8A1.459,1.459,0,0,0,17.5,10Zm-1.62,7,1.62-4.33L19.12,17Z" transform="translate(-1 -2)" fill="#7b1cd9"/>
</svg>
